<?xml version="1.0" standalone="no"?>
<!DOCTYPE svg PUBLIC "-//W3C//DTD SVG 20010904//EN"
 "http://www.w3.org/TR/2001/REC-SVG-20010904/DTD/svg10.dtd">
<svg version="1.0" xmlns="http://www.w3.org/2000/svg"
 width="400.000000pt" height="400.000000pt" viewBox="0 0 400.000000 400.000000"
 preserveAspectRatio="xMidYMid meet">
<metadata>
Created by potrace 1.14, written by Peter Selinger 2001-2017
</metadata>
<g transform="translate(0.000000,400.000000) scale(0.100000,-0.100000)"
fill="#000000" stroke="none">
<path d="M1805 3424 c-27 -8 -66 -19 -85 -25 -19 -6 -48 -14 -65 -18 -19 -5
-30 -13 -29 -24 1 -9 -2 -14 -7 -11 -5 3 -9 0 -9 -5 0 -6 -6 -10 -12 -8 -8 1
-14 -11 -16 -31 -2 -18 -7 -30 -12 -27 -4 3 -7 -3 -5 -12 1 -10 8 -17 14 -15
6 1 11 -3 11 -8 0 -5 -6 -10 -13 -10 -19 0 -156 -92 -213 -143 -27 -25 -56
-58 -64 -73 -8 -16 -27 -44 -42 -62 -16 -18 -28 -40 -28 -49 0 -9 -21 -36 -47
-60 -26 -23 -44 -43 -39 -43 5 0 18 7 28 17 11 10 18 12 18 4 0 -6 -12 -21
-27 -34 -14 -12 -39 -33 -54 -47 -51 -46 -64 -55 -71 -53 -5 2 -8 -8 -8 -22 0
-14 -9 -50 -19 -80 -10 -29 -16 -56 -13 -59 3 -3 0 -6 -7 -6 -7 0 -10 -4 -7
-9 3 -4 -4 -28 -16 -52 -12 -24 -21 -52 -20 -61 0 -10 -4 -18 -9 -18 -18 0
-77 -61 -82 -85 -5 -27 26 -85 45 -85 23 0 39 -16 32 -33 -3 -9 -10 -14 -15
-11 -5 3 -9 -1 -9 -9 0 -17 -44 -41 -62 -34 -20 7 -50 -19 -46 -40 2 -10 31
-33 66 -52 50 -28 61 -38 56 -53 -8 -26 22 -68 47 -68 15 0 19 -5 15 -16 -3
-9 -6 -18 -6 -20 0 -3 -4 -2 -10 1 -5 3 -10 0 -10 -8 0 -8 -6 -20 -14 -26 -26
-22 -12 -45 32 -55 24 -6 42 -16 42 -23 0 -24 43 -73 95 -109 27 -19 60 -41
73 -50 13 -10 22 -12 22 -5 0 6 -5 11 -11 11 -5 0 -7 5 -3 11 4 7 9 7 13 2 3
-6 20 -15 36 -21 29 -10 29 -11 7 -18 l-23 -7 21 -22 c22 -23 18 -55 -7 -55
-7 0 -13 -6 -12 -12 1 -7 -1 -21 -6 -32 -19 -43 42 -44 127 -1 53 27 62 30 54
17 -6 -10 14 -35 47 -57 16 -10 44 -42 62 -70 26 -41 46 -59 89 -80 90 -44
101 -27 62 98 -12 37 -12 47 -2 47 15 0 56 -45 56 -61 0 -18 51 -61 66 -55 8
3 11 0 8 -9 -3 -7 11 -31 31 -52 62 -65 90 -107 94 -138 1 -16 6 -34 11 -39 5
-5 6 -15 3 -23 -3 -8 -1 -24 4 -36 10 -20 26 -79 39 -135 4 -20 2 -22 -14 -13
-49 26 -151 140 -186 206 -20 39 -34 59 -30 45 32 -126 211 -340 284 -340 41
0 77 51 44 64 -7 3 -11 12 -8 21 3 8 10 12 15 9 5 -3 9 1 10 8 1 7 4 2 8 -11
6 -22 13 -17 91 70 47 52 176 184 288 294 l203 200 37 -44 c58 -69 61 -78 60
-177 -1 -49 2 -95 6 -102 11 -18 -22 -82 -156 -303 -68 -112 -138 -233 -155
-269 -106 -221 -147 -310 -187 -409 l-44 -111 879 0 879 0 0 308 0 308 -77 44
c-43 24 -91 53 -107 63 -15 11 -60 30 -100 42 -39 12 -111 45 -161 74 -49 28
-93 51 -99 51 -10 0 -256 113 -354 163 -34 18 -65 40 -68 49 -3 10 -17 28 -32
41 -15 14 -49 44 -75 68 -27 23 -62 60 -79 81 -29 37 -30 40 -12 53 11 7 50
17 87 20 44 5 67 11 64 18 -2 7 7 20 19 30 15 11 21 25 19 39 -3 11 -1 26 2
32 4 6 6 23 4 38 -2 22 2 28 18 28 11 0 22 9 26 20 3 11 14 20 22 20 9 0 14 3
10 6 -7 8 22 36 53 51 14 6 19 12 13 12 -7 1 -13 7 -13 15 0 8 -4 16 -9 18
-21 8 9 46 42 52 27 5 38 15 56 51 15 29 29 45 41 45 10 0 22 5 25 10 3 6 0
10 -7 10 -8 0 -9 3 -3 8 20 14 46 62 33 60 -8 -2 -15 12 -19 37 -3 22 -7 34
-8 26 -1 -10 -4 -11 -15 -2 -11 9 -11 18 -1 49 11 31 11 38 -1 40 -19 4 -18 8
6 32 26 26 16 48 -11 24 -11 -9 -21 -15 -24 -13 -10 10 -9 120 1 127 22 15 24
45 4 78 -15 26 -17 40 -10 59 9 23 6 29 -11 27 -4 -1 -5 8 -2 18 4 14 0 20
-11 20 -9 0 -16 8 -16 20 0 11 -6 19 -12 17 -8 -1 -13 9 -13 27 -1 24 -7 32
-32 43 -17 7 -34 21 -38 32 -3 11 -16 21 -28 23 -19 3 -24 13 -33 68 -6 36
-18 79 -27 97 -9 18 -17 36 -17 41 0 5 -12 24 -27 42 -65 74 -140 156 -170
184 -18 16 -33 35 -33 42 0 16 -96 102 -134 119 -17 8 -51 30 -76 50 -25 19
-61 42 -80 50 -19 9 -43 21 -52 26 -10 5 -30 9 -46 9 -15 0 -49 14 -75 30 -26
17 -53 30 -60 30 -7 0 -34 8 -62 19 -56 21 -265 31 -265 12 0 -6 -6 -9 -12 -7
-40 13 -79 12 -123 0z m1139 -530 c3 -8 2 -12 -4 -9 -6 3 -10 10 -10 16 0 14
7 11 14 -7z m26 -34 c0 -5 -2 -10 -4 -10 -3 0 -8 5 -11 10 -3 6 -1 10 4 10 6
0 11 -4 11 -10z m-1265 -160 c-1 -20 -11 -34 -23 -36 -4 0 -20 -6 -35 -12 -16
-7 -50 -15 -75 -18 -26 -3 -57 -12 -69 -20 -13 -8 -23 -11 -23 -7 0 14 45 73
56 73 6 0 17 6 24 14 11 14 32 19 111 23 30 2 35 0 34 -17z m125 -80 c0 -5 -4
-10 -10 -10 -5 0 -10 5 -10 10 0 6 5 10 10 10 6 0 10 -4 10 -10z m64 -20 c14
0 26 4 26 9 0 4 12 6 26 3 l27 -5 -23 -17 c-13 -10 -20 -22 -16 -29 4 -6 4
-11 -1 -10 -30 5 -52 -2 -47 -16 4 -9 0 -15 -9 -15 -8 0 -18 12 -22 27 -3 15
-14 33 -23 40 -11 8 -12 12 -4 13 6 0 12 8 12 18 1 16 1 16 14 0 7 -10 25 -18
40 -18z m11 -100 c3 -5 1 -10 -4 -10 -6 0 -11 5 -11 10 0 6 2 10 4 10 3 0 8
-4 11 -10z m-957 -162 c-8 -12 -21 -24 -29 -26 -8 -3 -3 7 10 22 30 32 39 34
19 4z m932 -19 c0 -7 7 -17 15 -23 10 -7 18 -33 20 -66 3 -30 9 -56 15 -58 5
-2 10 -8 10 -14 0 -6 -7 -7 -16 -4 -8 3 -13 2 -10 -3 3 -5 -2 -12 -12 -17 -14
-6 -11 -8 13 -13 22 -4 31 -13 33 -30 4 -28 -11 -47 -30 -35 -13 9 -61 14 -53
6 2 -2 -2 -10 -8 -17 -8 -9 -18 -10 -29 -4 -20 11 -53 -2 -61 -25 -5 -14 37
-39 59 -35 20 3 26 -2 16 -14 -6 -7 -13 -30 -15 -51 -3 -33 -10 -41 -59 -70
-49 -30 -57 -32 -79 -20 -33 18 -53 18 -45 -2 7 -17 -22 -66 -34 -59 -9 6 -26
-98 -21 -130 2 -11 8 -26 13 -32 12 -15 2 -47 -11 -38 -6 3 -7 13 -4 22 4 11
3 14 -5 9 -7 -4 -10 -17 -6 -32 4 -16 2 -24 -7 -24 -15 0 -2 -15 14 -15 7 0
17 4 23 10 19 18 54 97 54 120 0 27 64 90 83 82 8 -3 18 -21 22 -39 11 -53 43
-96 72 -100 21 -2 29 -10 36 -38 5 -19 14 -39 20 -43 7 -5 3 -7 -10 -4 -15 3
-23 0 -23 -9 0 -19 -57 -48 -63 -31 -4 8 -11 5 -24 -9 -31 -36 -83 -41 -83 -8
0 8 -5 14 -11 14 -6 0 -9 -7 -6 -14 4 -10 1 -13 -9 -9 -7 3 -14 9 -14 14 0 4
-10 17 -22 29 -14 13 -17 20 -8 20 7 0 11 2 8 5 -11 12 -39 -8 -33 -24 3 -9
-11 2 -32 23 -33 36 -35 40 -17 47 10 4 14 8 8 8 -6 1 -22 12 -36 26 -18 18
-24 32 -20 55 2 17 9 33 15 37 6 4 8 0 4 -10 -7 -20 6 -23 21 -4 23 27 -10 89
-39 71 -5 -3 -9 7 -9 21 0 15 -4 24 -10 20 -5 -3 -10 -3 -10 2 0 4 -3 19 -7
32 -5 19 -3 22 8 16 11 -7 12 -6 3 6 -24 30 -43 259 -23 259 6 0 8 3 6 8 -3 4
47 6 111 6 65 -1 119 1 122 5 8 9 68 51 75 51 9 0 5 -50 -6 -73 -7 -15 -2 -13
15 8 14 16 28 42 32 57 3 16 9 28 14 28 5 0 8 20 8 45 0 25 8 57 16 70 17 26
36 33 36 14z m430 -9 c0 -5 -4 -10 -10 -10 -5 0 -10 5 -10 10 0 6 5 10 10 10
6 0 10 -4 10 -10z m-566 -31 c-3 -5 -10 -7 -15 -3 -5 3 -7 10 -3 15 3 5 10 7
15 3 5 -3 7 -10 3 -15z m1536 11 c0 -5 -4 -10 -10 -10 -5 0 -10 5 -10 10 0 6
5 10 10 10 6 0 10 -4 10 -10z m-1540 -85 c-7 -9 -15 -13 -17 -11 -7 7 7 26 19
26 6 0 6 -6 -2 -15z m629 -125 c6 0 10 -3 10 -7 -1 -5 0 -10 1 -13 8 -23 6
-47 -6 -64 -8 -11 -14 -28 -14 -37 0 -21 -37 -32 -44 -13 -3 8 -19 14 -36 14
-30 0 -40 13 -20 25 8 5 8 11 0 20 -8 10 -8 15 1 21 9 5 7 11 -6 21 -18 12
-17 13 8 13 17 0 30 7 34 18 14 36 27 42 45 22 9 -11 21 -20 27 -20z m-133
-87 c-10 -10 -19 5 -10 18 6 11 8 11 12 0 2 -7 1 -15 -2 -18z m498 10 c3 -10
5 -20 4 -23 -2 -3 5 -16 15 -30 21 -30 22 -40 2 -40 -8 0 -12 6 -9 15 5 11 -1
13 -30 8 -31 -5 -36 -3 -36 14 0 12 7 26 15 33 8 7 15 19 15 26 0 20 18 17 24
-3z m23 -121 c-10 -10 -17 -24 -17 -30 0 -12 -38 -27 -47 -18 -9 8 18 37 28
30 5 -3 9 4 9 15 0 15 6 21 22 21 20 0 20 -1 5 -18z m-1787 -72 c0 -5 -8 -10
-17 -10 -15 0 -16 2 -3 10 19 12 20 12 20 0z m828 -42 c-5 -15 -48 -24 -48
-10 0 14 12 22 33 22 10 0 17 -5 15 -12z m207 -247 c3 -5 -8 -9 -24 -9 -17 1
-28 5 -25 10 7 11 41 10 49 -1z"/>
<path d="M1699 2027 c-20 -18 -48 -51 -63 -75 -27 -43 -27 -44 -9 -70 l18 -27
5 40 c4 30 9 40 23 39 10 -1 17 5 17 17 0 11 6 18 13 17 7 -2 13 10 15 27 2
17 9 36 14 43 23 27 0 20 -33 -11z"/>
<path d="M1412 794 c-68 -35 -154 -74 -191 -89 -105 -40 -222 -110 -272 -164
-85 -91 -136 -235 -166 -474 l-9 -67 399 2 399 3 12 37 c7 20 27 53 44 73 25
31 29 41 20 60 -7 16 -6 35 6 69 9 26 16 56 16 67 0 29 29 155 46 204 13 35
59 84 69 73 2 -2 11 -47 19 -101 15 -89 15 -100 0 -129 -18 -34 -79 -250 -89
-315 l-7 -43 220 0 c200 0 220 2 227 18 4 9 9 82 12 162 5 125 9 149 26 174
12 17 41 68 65 115 24 47 53 94 64 104 24 20 26 18 -66 81 -100 69 -130 79
-202 67 -55 -9 -61 -8 -85 15 -14 13 -32 24 -40 24 -32 0 -165 -73 -223 -124
-95 -83 -167 -136 -181 -136 -15 0 -13 79 5 264 5 50 8 91 7 91 -1 1 -58 -27
-125 -61z"/>
<path d="M2400 519 c0 -18 2 -19 15 -9 15 12 12 30 -6 30 -5 0 -9 -10 -9 -21z"/>
</g>
</svg>
